<?xml version="1.0" standalone="no"?>
<!DOCTYPE svg PUBLIC "-//W3C//DTD SVG 20010904//EN"
 "http://www.w3.org/TR/2001/REC-SVG-20010904/DTD/svg10.dtd">
<svg version="1.0" xmlns="http://www.w3.org/2000/svg"
 width="600.000000pt" height="600.000000pt" viewBox="0 0 600.000000 600.000000"
 preserveAspectRatio="xMidYMid meet">
<metadata>
Created by potrace 1.11, written by Peter Selinger 2001-2013
</metadata>
<g transform="translate(0.000000,600.000000) scale(0.100000,-0.100000)"
fill="#000000" stroke="none">
<path d="M2926 5915 c-32 -19 -60 -35 -61 -35 -4 0 -344 -196 -543 -312 -85
-49 -156 -87 -159 -84 -4 3 -11 -1 -17 -9 -16 -22 -127 -86 -137 -79 -5 3 -9
0 -9 -6 0 -6 -8 -13 -17 -17 -10 -3 -25 -11 -33 -18 -8 -7 -42 -27 -75 -45
-33 -17 -65 -36 -71 -41 -6 -5 -14 -6 -17 -2 -4 3 -7 1 -7 -5 0 -7 -5 -12 -11
-12 -6 0 -29 -13 -52 -28 -45 -30 -77 -46 -89 -44 -5 1 -8 -2 -8 -7 0 -5 -12
-16 -27 -24 -87 -45 -119 -63 -131 -75 -8 -7 -18 -10 -23 -7 -5 4 -9 1 -9 -5
0 -6 -12 -16 -27 -23 -16 -6 -63 -33 -106 -59 -43 -27 -81 -48 -84 -48 -3 0
-17 -8 -31 -18 -15 -11 -52 -32 -82 -48 -30 -16 -70 -39 -89 -51 -18 -13 -38
-20 -44 -16 -5 3 -7 2 -4 -4 3 -5 -22 -24 -56 -41 -66 -35 -99 -54 -107 -62
-16 -16 -52 -30 -62 -24 -6 4 -8 3 -5 -3 6 -9 -25 -30 -98 -68 -16 -9 -43 -24
-60 -35 -16 -11 -40 -24 -53 -30 -13 -5 -38 -21 -56 -35 l-33 -25 0 -1468 c0
-1060 3 -1473 11 -1483 6 -8 92 -62 191 -119 99 -57 227 -131 285 -165 58 -34
112 -64 120 -68 8 -4 29 -15 45 -26 28 -17 390 -226 465 -269 19 -10 118 -68
220 -127 102 -59 203 -118 225 -130 22 -12 225 -129 450 -259 415 -241 481
-279 524 -302 29 -15 46 -9 136 46 37 22 69 40 70 40 2 0 70 39 152 86 81 48
162 94 178 104 17 9 192 110 390 225 198 114 378 218 400 230 22 13 81 46 130
75 50 29 105 61 123 72 90 51 300 173 327 189 17 11 36 22 44 26 8 3 64 35
125 71 61 36 125 73 142 82 212 121 337 194 354 208 l21 17 0 1465 c0 806 -2
1472 -6 1480 -5 14 -31 31 -165 106 -30 17 -138 80 -240 139 -102 59 -203 117
-225 130 -22 12 -137 78 -255 147 -195 113 -895 517 -1063 614 -38 21 -83 47
-100 58 -167 98 -288 166 -297 166 -5 0 -10 5 -10 10 0 6 -4 10 -10 10 -5 0
-33 14 -62 31 -96 57 -118 69 -131 69 -7 0 -39 -16 -71 -35z"/>
</g>
</svg>
