<?xml version="1.0" standalone="no"?>
<!DOCTYPE svg PUBLIC "-//W3C//DTD SVG 20010904//EN"
 "http://www.w3.org/TR/2001/REC-SVG-20010904/DTD/svg10.dtd">
<svg version="1.0" xmlns="http://www.w3.org/2000/svg"
 width="195.000000pt" height="195.000000pt" viewBox="0 0 195.000000 195.000000"
 preserveAspectRatio="xMidYMid meet">
<metadata>
Created by potrace 1.11, written by Peter Selinger 2001-2013
</metadata>
<g transform="translate(0.000000,195.000000) scale(0.100000,-0.100000)"
fill="#000000" stroke="none">
<path d="M720 1752 c-129 -76 -306 -178 -392 -227 l-158 -90 0 -461 0 -461
400 -231 399 -231 401 231 400 232 0 457 0 458 -27 19 c-62 42 -762 442 -774
442 -8 0 -120 -62 -249 -138z m-107 -554 c2 -7 3 -30 0 -50 -3 -32 0 -37 19
-40 30 -4 39 -55 11 -65 -28 -10 -33 -23 -33 -100 0 -74 4 -80 43 -74 4 0 7
-8 7 -19 0 -17 -7 -20 -39 -20 -27 0 -41 5 -45 16 -6 15 -9 15 -24 2 -9 -8
-32 -15 -49 -17 l-33 -3 0 187 0 186 32 -3 c30 -3 32 -5 33 -44 0 -25 7 -47
18 -58 19 -20 21 -16 17 56 -1 21 1 42 5 48 9 14 32 13 38 -2z m-199 -4 c9 -3
16 -14 16 -24 0 -10 6 -20 12 -22 19 -7 15 -50 -5 -71 -18 -18 -18 -19 2 -38
17 -16 19 -24 11 -39 -6 -11 -15 -20 -20 -20 -5 0 -10 -33 -12 -72 l-3 -73
-37 -3 c-22 -2 -38 1 -38 7 0 6 4 11 9 11 4 0 11 17 14 37 5 29 2 41 -13 55
-25 23 -25 29 1 59 12 14 18 31 15 44 -3 11 -6 26 -6 33 0 6 -7 12 -15 12 -22
0 -18 33 8 74 22 36 33 41 61 30z m407 -16 c7 -62 2 -128 -8 -133 -26 -9 -4
-65 26 -65 16 0 25 48 12 64 -7 8 -11 42 -10 80 l2 66 84 0 84 0 -3 -72 c-3
-75 -23 -100 -23 -30 -1 35 -2 37 -38 40 -43 4 -50 -14 -9 -25 l27 -7 -25 -6
c-50 -12 -28 -83 26 -86 16 -1 34 -2 40 -3 7 -1 10 -28 8 -73 -3 -102 -2 -100
-20 -96 -13 2 -17 16 -18 63 -1 58 -2 60 -29 63 -19 2 -29 -2 -34 -15 -4 -10
-15 -27 -25 -37 -10 -11 -18 -23 -18 -28 0 -4 -4 -8 -10 -8 -18 0 -10 25 14
44 15 10 22 24 19 33 -4 10 -9 11 -16 4 -6 -6 -26 -11 -44 -11 -28 0 -33 -4
-33 -24 0 -13 7 -26 15 -30 27 -10 17 -36 -14 -36 -16 0 -42 -5 -57 -10 -32
-13 -50 0 -39 27 4 10 9 45 10 78 3 73 3 74 15 55 5 -8 9 -39 8 -68 0 -29 2
-55 5 -59 4 -3 7 33 7 80 0 80 -2 87 -20 87 -18 0 -20 7 -20 75 l0 75 55 0
c37 0 55 -4 56 -12z m358 -12 c10 -26 8 -101 -3 -128 -21 -47 22 -78 43 -32 9
21 9 29 0 35 -11 6 -13 32 -10 117 l1 32 80 0 80 0 0 -70 c0 -57 -3 -70 -15
-70 -13 0 -15 8 -10 39 5 33 3 39 -16 44 -11 3 -27 3 -35 0 -17 -6 -18 -30 -1
-36 7 -3 5 -6 -5 -6 -22 -1 -22 -11 -3 -57 12 -30 19 -35 42 -34 54 4 53 5 53
-85 0 -77 -2 -85 -19 -85 -21 0 -36 15 -24 23 7 5 8 25 4 87 -1 26 -49 28 -58
3 -10 -28 -62 -75 -75 -67 -6 4 2 16 21 31 36 28 46 64 10 40 -11 -8 -29 -12
-41 -9 -11 3 -24 -1 -29 -9 -13 -20 -11 -26 12 -48 25 -23 17 -29 -44 -35 -26
-3 -51 -7 -57 -11 -15 -9 -25 24 -11 38 6 6 11 37 11 69 0 32 4 58 10 58 6 0
10 -28 10 -62 0 -38 4 -58 9 -50 4 8 9 41 9 73 1 48 -3 64 -19 77 -14 12 -19
29 -19 68 0 75 6 84 51 84 32 0 41 -4 48 -24z m451 -216 l0 -110 -105 0 -105
0 0 110 0 110 105 0 105 0 0 -110z m-670 -40 c0 -5 -9 -14 -20 -20 -11 -6 -20
-17 -20 -24 0 -8 -7 -17 -16 -20 -22 -9 -24 -8 -24 9 0 8 5 15 10 15 6 0 10 5
10 11 0 14 30 38 48 39 6 0 12 -4 12 -10z m360 3 c0 -18 -67 -86 -73 -76 -4 6
0 18 8 26 8 9 15 18 15 22 0 3 6 12 13 20 13 15 37 20 37 8z"/>
<path d="M564 1045 c-4 -8 -10 -12 -15 -10 -13 9 -20 -33 -17 -100 3 -52 6
-60 23 -60 19 0 20 7 20 92 0 51 -1 93 -3 93 -1 0 -5 -7 -8 -15z"/>
<path d="M760 1113 c0 -25 16 -47 28 -39 6 3 9 14 7 24 -2 9 -4 20 -4 25 -2
16 -31 6 -31 -10z"/>
<path d="M1120 1102 c0 -34 7 -43 26 -35 8 3 14 18 14 34 0 22 -5 29 -20 29
-15 0 -20 -7 -20 -28z"/>
<path d="M1430 950 l0 -100 95 0 95 0 0 100 0 100 -95 0 -95 0 0 -100z m138
68 c16 -16 15 -38 -3 -58 -13 -15 -12 -20 15 -47 32 -32 30 -43 -6 -43 -16 0
-29 10 -39 31 -16 29 -33 35 -23 7 11 -28 7 -32 -27 -35 -34 -2 -46 9 -25 22
6 3 10 28 10 55 0 27 -4 52 -10 55 -5 3 -10 10 -10 16 0 13 104 11 118 -3z"/>
<path d="M1510 983 c0 -25 1 -26 16 -11 9 9 13 21 10 27 -13 20 -26 11 -26
-16z"/>
</g>
</svg>
