<?xml version="1.0" standalone="no"?>
<!DOCTYPE svg PUBLIC "-//W3C//DTD SVG 20010904//EN"
 "http://www.w3.org/TR/2001/REC-SVG-20010904/DTD/svg10.dtd">
<svg version="1.0" xmlns="http://www.w3.org/2000/svg"
 width="195.000000pt" height="195.000000pt" viewBox="0 0 195.000000 195.000000"
 preserveAspectRatio="xMidYMid meet">
<metadata>
Created by potrace 1.11, written by Peter Selinger 2001-2013
</metadata>
<g transform="translate(0.000000,195.000000) scale(0.100000,-0.100000)"
fill="#000000" stroke="none">
<path d="M805 1804 c-88 -52 -267 -156 -398 -231 l-237 -136 2 -464 3 -464
397 -230 397 -230 400 231 401 232 0 462 0 462 -396 230 c-219 126 -400 230
-403 231 -3 1 -78 -41 -166 -93z m-195 -655 c3 -24 8 -42 11 -39 9 8 39 -21
39 -37 0 -8 -9 -17 -19 -20 -23 -6 -33 -38 -37 -120 -2 -50 0 -63 11 -63 8 0
15 -4 15 -10 0 -5 7 -10 15 -10 8 0 15 -4 15 -9 0 -13 -69 -4 -87 10 -11 10
-16 10 -23 0 -4 -8 -13 -10 -20 -6 -7 4 -16 2 -20 -5 -4 -7 -14 -10 -22 -7
-12 4 -15 39 -16 181 l-2 176 31 0 c25 0 29 -3 24 -19 -3 -11 -2 -22 4 -25 5
-3 7 -15 4 -26 -3 -12 1 -22 11 -26 17 -6 23 -44 7 -44 -16 0 -31 -63 -26
-112 3 -34 1 -48 -8 -48 -22 0 17 -20 39 -20 21 0 21 3 19 143 -2 78 0 152 2
165 8 36 28 20 33 -29z m-185 21 c3 -11 11 -20 16 -20 15 0 10 -50 -6 -66 -8
-9 -15 -22 -15 -30 0 -8 7 -14 15 -14 8 0 15 -6 15 -14 0 -24 -11 -46 -24 -46
-7 0 -11 -25 -11 -72 l0 -73 -27 1 c-49 2 -54 4 -35 15 22 13 25 89 2 89 -10
0 -15 10 -15 31 0 22 4 30 13 26 10 -4 14 7 16 39 1 32 -3 46 -14 50 -16 7
-21 64 -6 64 5 0 13 9 16 20 4 13 15 20 30 20 15 0 26 -7 30 -20z m394 -47
c-1 -38 -6 -74 -11 -80 -15 -19 -1 -63 21 -63 21 0 46 47 33 64 -13 16 -22 84
-15 117 5 29 6 29 78 29 49 0 74 -4 77 -12 9 -26 3 -121 -8 -125 -6 -2 -9 12
-8 35 1 31 -3 40 -22 49 -15 7 -26 7 -30 2 -3 -6 -11 -5 -20 2 -11 9 -14 7
-14 -10 0 -12 7 -24 15 -27 14 -6 14 -8 -1 -18 -14 -11 -15 -15 0 -49 14 -34
18 -37 55 -37 l41 0 0 -79 c0 -81 -5 -96 -29 -82 -10 6 -9 10 5 15 13 5 14 10
6 18 -8 8 -8 15 -1 24 7 8 7 14 -1 19 -5 3 -10 15 -10 26 0 15 -7 19 -35 19
-19 0 -35 -5 -35 -11 0 -8 -5 -7 -16 2 -12 10 -17 10 -23 1 -4 -7 -23 -11 -42
-10 -33 3 -34 2 -34 -32 0 -28 4 -34 18 -32 9 2 17 -3 17 -11 0 -11 -11 -14
-42 -12 -24 1 -49 -3 -56 -8 -9 -7 -17 -6 -25 2 -8 8 -9 14 -1 19 6 4 10 35 9
70 -1 34 2 62 7 62 9 0 11 -15 9 -70 -2 -53 16 -72 22 -24 3 22 4 53 3 69 -2
17 -4 40 -4 53 -1 14 -8 22 -20 22 -13 0 -18 10 -19 48 -4 85 1 92 57 92 l50
0 -1 -67z m358 44 c12 -26 9 -90 -6 -130 -13 -33 -6 -53 20 -60 28 -8 56 52
33 69 -15 12 -20 110 -6 130 4 6 37 12 74 13 63 2 68 1 72 -21 8 -36 2 -111
-9 -115 -7 -2 -9 12 -7 37 3 32 1 40 -12 40 -9 0 -16 5 -16 10 0 6 -12 10 -26
10 -24 0 -26 -3 -21 -29 3 -15 2 -32 -3 -37 -4 -5 -2 -26 7 -46 14 -35 18 -38
57 -38 l41 0 1 -83 c1 -74 -1 -83 -18 -84 -20 -2 -24 12 -8 22 8 5 8 11 0 20
-7 9 -7 15 -1 19 6 4 6 17 -1 36 -8 24 -16 30 -39 30 -22 0 -29 -5 -29 -20 0
-11 -4 -20 -10 -20 -5 0 -10 9 -10 20 0 11 -4 20 -10 20 -5 0 -10 -5 -10 -11
0 -7 -12 -9 -31 -7 -21 3 -33 0 -39 -12 -10 -19 -2 -60 11 -60 5 0 9 -4 9 -8
0 -4 -19 -7 -42 -7 -26 1 -50 -4 -62 -14 -18 -15 -19 -15 -13 18 4 18 7 58 7
88 0 35 4 52 10 48 6 -4 10 -21 9 -38 -2 -18 -1 -45 0 -62 4 -50 19 0 20 68 1
43 -4 62 -18 76 -14 14 -19 34 -20 68 0 74 5 83 48 83 30 0 40 -5 48 -23z
m453 -217 l0 -110 -105 0 c-58 0 -105 3 -105 8 0 4 45 6 100 4 l100 -3 0 101
0 101 -100 -3 c-55 -2 -100 0 -100 5 0 4 47 7 105 7 l105 0 0 -110z m-62 68
c16 -16 15 -38 -3 -58 -15 -16 -13 -20 15 -49 l32 -31 -30 0 c-21 0 -36 8 -51
28 -13 18 -20 22 -21 11 0 -8 5 -20 12 -27 9 -9 2 -12 -32 -12 -34 0 -41 3
-32 12 14 14 16 104 2 113 -5 3 -10 10 -10 16 0 13 104 11 118 -3z m-614 -107
c3 -5 -1 -11 -9 -15 -9 -3 -15 0 -15 9 0 16 16 20 24 6z m366 1 c0 -13 -12
-22 -22 -16 -10 6 -1 24 13 24 5 0 9 -4 9 -8z m-400 -38 c0 -14 -4 -23 -10
-19 -5 3 -10 1 -10 -4 0 -6 -4 -11 -10 -11 -15 0 -12 17 7 40 22 25 23 25 23
-6z m370 9 c0 -5 -9 -19 -20 -33 -16 -21 -20 -22 -20 -7 0 10 6 24 13 32 13
16 27 19 27 8z"/>
<path d="M758 1112 c-7 -24 8 -52 28 -52 11 0 14 9 12 32 -3 37 -32 51 -40 20z"/>
<path d="M1120 1095 c0 -28 4 -35 19 -35 12 0 21 9 25 25 8 32 1 45 -25 45
-15 0 -19 -7 -19 -35z"/>
<path d="M1510 985 c0 -17 5 -25 13 -22 6 2 12 12 12 22 0 10 -6 20 -12 23 -8
2 -13 -6 -13 -23z"/>
</g>
</svg>
